<svg version="1.1" xmlns="http://www.w3.org/2000/svg" viewBox="0 0 NaN NaN" width="NaN" height="NaN">
  <!-- svg-source:excalidraw -->
  
  <defs>
    <style>
      @font-face {
        font-family: "Virgil";
        src: url("https://excalidraw.com/Virgil.woff2");
      }
      @font-face {
        font-family: "Cascadia";
        src: url("https://excalidraw.com/Cascadia.woff2");
      }
    </style>
  </defs>
  <rect x="0" y="0" width="NaN" height="NaN" fill="#ffffff"></rect><g transform="translate(0 0) rotate(0 91 13)"><text x="0" y="18" font-family="Virgil, Segoe UI Emoji" font-size="20px" fill="#36c74f" text-anchor="start" style="white-space: pre;" direction="ltr">Exercise Definition</text></g><g transform="translate(0 0) rotate(0 101.5 13)"><text x="0" y="18" font-family="Virgil, Segoe UI Emoji" font-size="20px" fill="#000000" text-anchor="start" style="white-space: pre;" direction="ltr">Exercise Interpreter</text></g><g transform="translate(0 0) rotate(0 83.5 13)"><text x="0" y="18" font-family="Virgil, Segoe UI Emoji" font-size="20px" fill="#36c74f" text-anchor="start" style="white-space: pre;" direction="ltr">Exercise Factory</text></g><g transform="translate(0 0) rotate(0 40.5 13)"><text x="0" y="18" font-family="Virgil, Segoe UI Emoji" font-size="20px" fill="#36c74f" text-anchor="start" style="white-space: pre;" direction="ltr">Exercise</text></g><g stroke-linecap="round" transform="translate(0 0) rotate(0 99.21338250281178 23.632866218364597)"><path d="M143.18 1.99 C156.22 3.06, 168.17 6.8, 177.09 9.66 C186 12.52, 193.6 15.98, 196.68 19.14 C199.75 22.31, 198.91 25.29, 195.51 28.63 C192.11 31.98, 185.08 36.33, 176.27 39.21 C167.46 42.08, 155.43 44.48, 142.63 45.86 C129.83 47.23, 114.01 47.5, 99.45 47.45 C84.89 47.41, 68.26 47.12, 55.29 45.59 C42.32 44.06, 30.33 41.13, 21.64 38.26 C12.95 35.4, 6.22 31.58, 3.14 28.38 C0.05 25.19, -0.15 22.5, 3.13 19.11 C6.41 15.72, 13.98 10.82, 22.82 8.06 C31.67 5.29, 43.55 3.91, 56.19 2.49 C68.83 1.08, 83.27 -0.4, 98.65 -0.44 C114.03 -0.48, 139.71 1.53, 148.48 2.25 C157.25 2.96, 152.06 3.42, 151.25 3.86 M71.79 -0.36 C84.77 -1.46, 102.4 0.05, 116.76 0.83 C131.12 1.62, 146.49 2.61, 157.95 4.37 C169.42 6.12, 178.67 8.26, 185.55 11.36 C192.42 14.46, 198.62 19.36, 199.21 22.99 C199.8 26.63, 194.67 30.2, 189.09 33.16 C183.51 36.12, 176.48 38.71, 165.73 40.74 C154.97 42.76, 138.79 44.2, 124.57 45.33 C110.35 46.46, 94.55 48.18, 80.41 47.5 C66.27 46.83, 50.9 43.35, 39.72 41.28 C28.54 39.21, 19.83 37.65, 13.32 35.09 C6.81 32.53, 1.37 29.45, 0.67 25.9 C-0.03 22.36, 3.67 17.13, 9.12 13.82 C14.57 10.5, 22.7 8.11, 33.35 6.01 C44.01 3.9, 66.4 2.09, 73.05 1.18 C79.7 0.28, 72.76 0.02, 73.25 0.56" stroke="#36c74f" stroke-width="1" fill="none"></path></g><g stroke-linecap="round" transform="translate(0 0) rotate(0 56.40673414786943 19.84267967573396)"><path d="M38.32 1.13 C47.21 -0.2, 61.15 0.49, 71.17 1.3 C81.2 2.11, 91.73 3.53, 98.47 5.99 C105.21 8.44, 109.81 12.34, 111.61 16.03 C113.41 19.71, 112.96 24.66, 109.26 28.11 C105.55 31.55, 97.84 34.87, 89.38 36.69 C80.92 38.52, 68.69 39, 58.49 39.06 C48.3 39.12, 36.99 38.67, 28.22 37.06 C19.45 35.45, 10.58 32.54, 5.86 29.4 C1.14 26.27, -1.35 21.77, -0.1 18.26 C1.15 14.75, 5.42 11.41, 13.36 8.36 C21.3 5.31, 40.05 1.44, 47.55 -0.03 C55.05 -1.5, 58.17 -0.94, 58.36 -0.44 M36.56 1.14 C45.18 -0.56, 56.45 -1.67, 66.21 -1.09 C75.97 -0.51, 87.82 1.91, 95.11 4.62 C102.41 7.33, 107.47 11.45, 109.99 15.16 C112.5 18.87, 113.32 23.66, 110.19 26.88 C107.06 30.11, 99.43 32.22, 91.2 34.48 C82.96 36.75, 70.81 40.22, 60.79 40.48 C50.77 40.75, 39.9 37.67, 31.08 36.07 C22.25 34.47, 13.15 33.94, 7.87 30.88 C2.59 27.82, -0.85 21.67, -0.6 17.7 C-0.36 13.73, 3.26 10.01, 9.36 7.08 C15.46 4.15, 31.84 0.75, 36 0.1 C40.16 -0.55, 34.03 2.56, 34.31 3.18" stroke="#36c74f" stroke-width="1" fill="none"></path></g><g stroke-linecap="round" transform="translate(0 0) rotate(0 118.83314925168793 28.09185504500192)"><path d="M170.35 3.47 C184.93 4.83, 199.68 7.87, 210.03 10.6 C220.39 13.33, 228.11 16.18, 232.48 19.85 C236.86 23.51, 238.26 28.62, 236.28 32.6 C234.31 36.58, 228.96 40.58, 220.65 43.72 C212.35 46.87, 199.96 49.35, 186.45 51.47 C172.95 53.58, 155.52 55.77, 139.62 56.42 C123.71 57.06, 106.45 56.43, 91.01 55.34 C75.58 54.26, 59.7 52.08, 47 49.9 C34.31 47.72, 22.47 45.65, 14.86 42.24 C7.25 38.83, 2.71 33.35, 1.34 29.45 C-0.02 25.55, 1.56 22.37, 6.67 18.84 C11.77 15.31, 20.67 11.19, 31.96 8.27 C43.25 5.36, 59.41 2.77, 74.39 1.35 C89.37 -0.07, 104.78 -0.58, 121.83 -0.26 C138.89 0.06, 167.07 2.59, 176.7 3.26 C186.34 3.92, 180.76 3.38, 179.66 3.73 M72.32 2.18 C85.5 0.1, 103.09 -1.18, 119.25 -1.03 C135.42 -0.89, 154.74 1.22, 169.3 3.03 C183.86 4.83, 195.95 7.14, 206.63 9.82 C217.31 12.49, 228.52 15.64, 233.36 19.05 C238.2 22.46, 237.91 26.28, 235.65 30.28 C233.38 34.27, 228.02 39.82, 219.79 43.02 C211.55 46.23, 198.94 47.37, 186.24 49.51 C173.54 51.65, 159.07 54.66, 143.59 55.85 C128.1 57.05, 109.1 57.63, 93.35 56.67 C77.6 55.7, 62.19 52.5, 49.09 50.06 C36 47.61, 22.83 45.17, 14.8 42 C6.77 38.83, 2.34 34.97, 0.93 31.03 C-0.48 27.08, 1.12 21.79, 6.33 18.34 C11.54 14.9, 21.39 13.13, 32.19 10.34 C42.99 7.56, 64.52 3.12, 71.11 1.63 C77.7 0.13, 70.68 0.85, 71.73 1.37" stroke="#000000" stroke-width="1" fill="none"></path></g><g stroke-linecap="round" transform="translate(0 0) rotate(0 109.69212372676043 22.518111073776254)"><path d="M146.03 1.89 C160.11 2.43, 174.43 3.76, 185.14 5.67 C195.85 7.59, 204.47 10.4, 210.3 13.37 C216.14 16.35, 220.2 20.33, 220.15 23.52 C220.11 26.72, 216.42 29.98, 210.05 32.54 C203.67 35.1, 193.16 36.94, 181.91 38.88 C170.66 40.83, 156.8 43.1, 142.54 44.22 C128.28 45.34, 111.31 45.89, 96.36 45.59 C81.41 45.28, 65.45 43.93, 52.83 42.41 C40.22 40.89, 29.29 39.08, 20.69 36.45 C12.09 33.81, 4.2 29.9, 1.24 26.6 C-1.71 23.29, -0.42 19.42, 2.97 16.62 C6.37 13.82, 12.81 12.13, 21.6 9.78 C30.38 7.42, 42.64 3.95, 55.67 2.46 C68.7 0.98, 83.14 1.02, 99.77 0.87 C116.41 0.71, 144.88 1.11, 155.5 1.53 C166.12 1.96, 164.34 3.12, 163.51 3.41 M110.09 -0.94 C123.98 -1.22, 140.09 1.71, 153.75 2.88 C167.4 4.06, 181.9 3.8, 192.02 6.11 C202.14 8.42, 210.12 13.82, 214.46 16.76 C218.8 19.7, 219.91 21.12, 218.06 23.76 C216.21 26.4, 210.64 29.98, 203.36 32.6 C196.07 35.22, 186.49 37.25, 174.35 39.47 C162.21 41.7, 145.12 45.02, 130.49 45.95 C115.86 46.89, 100.68 45.76, 86.59 45.08 C72.51 44.4, 58.08 43.86, 45.96 41.88 C33.84 39.91, 21.41 36.02, 13.87 33.24 C6.32 30.46, 2.03 28.13, 0.69 25.18 C-0.65 22.23, 1.34 18.38, 5.85 15.54 C10.36 12.7, 17.6 10.5, 27.77 8.12 C37.93 5.74, 53.21 2.78, 66.84 1.27 C80.47 -0.25, 102.56 -0.98, 109.54 -0.97 C116.53 -0.95, 108.68 0.73, 108.76 1.37" stroke="#36c74f" stroke-width="1" fill="none"></path></g><g transform="translate(0 0) rotate(0 93.5 13)"><text x="0" y="18" font-family="Virgil, Segoe UI Emoji" font-size="20px" fill="#000000" text-anchor="start" style="white-space: pre;" direction="ltr">Concrete Definition</text></g><g transform="translate(0 0) rotate(0 85.5 13)"><text x="0" y="18" font-family="Virgil, Segoe UI Emoji" font-size="20px" fill="#000000" text-anchor="start" style="white-space: pre;" direction="ltr">Concrete Factory</text></g><g transform="translate(0 0) rotate(0 88.5 13)"><text x="0" y="18" font-family="Virgil, Segoe UI Emoji" font-size="20px" fill="#000000" text-anchor="start" style="white-space: pre;" direction="ltr">Concrete Exercise</text></g><g stroke-linecap="round" transform="translate(0 0) rotate(0 107.23966875900896 24.74762136295317)"><path d="M142.29 1.05 C155.88 1.92, 170.73 4.92, 181.52 7.36 C192.31 9.8, 201.53 12.82, 207.05 15.71 C212.57 18.6, 215 21.38, 214.64 24.68 C214.29 27.97, 211.16 32.23, 204.92 35.48 C198.67 38.74, 188.38 41.96, 177.17 44.21 C165.97 46.47, 151.46 48.01, 137.68 49.03 C123.9 50.04, 108.96 50.85, 94.48 50.29 C80 49.73, 63.33 47.72, 50.8 45.67 C38.27 43.62, 27.52 40.58, 19.3 38 C11.07 35.41, 4.31 33.37, 1.44 30.15 C-1.43 26.94, -1.27 21.97, 2.1 18.7 C5.46 15.43, 12.73 13.24, 21.62 10.54 C30.52 7.84, 42.85 4.27, 55.49 2.51 C68.12 0.74, 80.78 0.07, 97.42 -0.03 C114.07 -0.14, 143.73 1.02, 155.34 1.88 C166.95 2.74, 167.74 4.63, 167.09 5.12 M74.5 -0.21 C87.35 -1.52, 104.39 0.85, 118.67 1.23 C132.94 1.61, 147.77 0.81, 160.14 2.09 C172.51 3.37, 184.13 6.22, 192.89 8.92 C201.66 11.61, 209.77 14.54, 212.73 18.26 C215.69 21.98, 213.73 27.67, 210.65 31.26 C207.57 34.86, 202.35 37.15, 194.26 39.84 C186.16 42.53, 174.8 45.87, 162.08 47.38 C149.36 48.89, 132.57 48.69, 117.94 48.91 C103.31 49.13, 87.99 49.65, 74.3 48.7 C60.62 47.75, 46.81 45.42, 35.85 43.23 C24.89 41.04, 14.3 38.76, 8.54 35.58 C2.78 32.39, 1.28 27.77, 1.29 24.12 C1.29 20.48, 3.12 16.53, 8.57 13.73 C14.02 10.92, 23.1 9.27, 33.99 7.29 C44.87 5.31, 67.16 2.6, 73.89 1.85 C80.62 1.1, 73.73 2.5, 74.36 2.79" stroke="#000000" stroke-width="1" fill="none"></path></g><g stroke-linecap="round" transform="translate(0 0) rotate(0 99.21344600624525 22.07218996491065)"><path d="M133.07 2.14 C146.55 3.07, 160.93 5.41, 171.06 7.61 C181.19 9.8, 189.55 12.29, 193.87 15.29 C198.2 18.28, 198.89 22.44, 197.01 25.57 C195.12 28.7, 190.18 31.56, 182.58 34.05 C174.98 36.54, 163.62 38.7, 151.43 40.5 C139.23 42.3, 123.63 44.59, 109.4 44.84 C95.16 45.09, 79.63 43.21, 66.02 42 C52.42 40.8, 38.06 39.86, 27.76 37.62 C17.46 35.39, 8.59 31.79, 4.23 28.61 C-0.13 25.42, -0.31 21.64, 1.6 18.5 C3.5 15.37, 7.84 12.36, 15.65 9.78 C23.47 7.2, 36.26 4.78, 48.49 3.01 C60.73 1.24, 72.32 -0.76, 89.06 -0.86 C105.81 -0.95, 136.95 1.36, 148.96 2.43 C160.97 3.49, 161.89 5.08, 161.13 5.56 M96.07 0.48 C109.55 0.25, 123.96 1.01, 137.17 2.09 C150.37 3.17, 165.87 4.77, 175.3 6.95 C184.73 9.14, 190.38 11.93, 193.74 15.22 C197.11 18.51, 198.13 23.64, 195.49 26.71 C192.85 29.78, 185.95 31.11, 177.91 33.62 C169.87 36.14, 159.59 39.83, 147.25 41.77 C134.9 43.72, 118.17 45.29, 103.81 45.29 C89.44 45.29, 74.39 43.2, 61.05 41.76 C47.71 40.33, 33.31 38.93, 23.78 36.67 C14.25 34.4, 7.55 31.41, 3.88 28.18 C0.21 24.94, -0.93 20.26, 1.75 17.28 C4.43 14.3, 11.58 12.87, 19.94 10.31 C28.3 7.75, 39.55 3.88, 51.93 1.92 C64.31 -0.04, 86.84 -1.16, 94.21 -1.43 C101.59 -1.7, 95.85 -0.24, 96.18 0.31" stroke="#000000" stroke-width="1" fill="none"></path></g><g stroke-linecap="round" transform="translate(0 0) rotate(0 97.56511352064592 29.648568132576624)"><path d="M80.78 1.12 C93.91 0.09, 110.77 0.66, 124.28 1.58 C137.79 2.51, 151.23 3.92, 161.83 6.67 C172.44 9.43, 182.39 13.96, 187.91 18.13 C193.44 22.29, 195.79 27.3, 194.99 31.65 C194.19 36, 189.64 40.41, 183.11 44.24 C176.59 48.06, 167.3 52.22, 155.84 54.61 C144.37 57, 128.33 58.11, 114.35 58.58 C100.36 59.04, 85.49 58.35, 71.94 57.39 C58.39 56.43, 43.85 55.54, 33.05 52.8 C22.25 50.06, 12.68 44.92, 7.15 40.97 C1.61 37.03, -0.88 33.46, -0.18 29.14 C0.53 24.83, 4.83 19.03, 11.38 15.1 C17.93 11.17, 24.95 8.22, 39.13 5.57 C53.32 2.92, 84.04 -0.11, 96.48 -0.81 C108.92 -1.52, 113.61 0.71, 113.78 1.32 M67.83 0.03 C80.34 -1.62, 97.09 0.75, 110.88 1.36 C124.68 1.97, 139.04 1.71, 150.6 3.68 C162.16 5.64, 172.76 9.49, 180.22 13.16 C187.68 16.82, 194.14 20.93, 195.34 25.65 C196.54 30.36, 192.45 37.1, 187.43 41.43 C182.42 45.76, 175 48.69, 165.25 51.63 C155.5 54.56, 142.48 57.89, 128.93 59.05 C115.39 60.21, 98.11 59.29, 83.96 58.59 C69.8 57.88, 55.64 57.09, 44.01 54.81 C32.37 52.54, 21.56 48.58, 14.16 44.95 C6.77 41.33, 0.75 37.46, -0.36 33.07 C-1.47 28.68, 2.52 22.91, 7.49 18.61 C12.45 14.31, 19.69 9.97, 29.43 7.26 C39.16 4.56, 59.51 3.15, 65.91 2.38 C72.31 1.61, 67.13 2.16, 67.81 2.66" stroke="#000000" stroke-width="1" fill="none"></path></g><g stroke-linecap="round" transform="translate(0 0) rotate(0 74.46579289157489 16.05250900896158)"><path d="M-0.72 -0.65 C54.52 0.52, 111.64 0.76, 149.98 0.38 M-0.05 0.71 C35.05 0.32, 71.78 0.74, 148.14 -0.24 M150.52 -1.53 C147.92 9.68, 150.22 20.05, 147.85 30.18 M148.94 0.31 C149.13 9.17, 148.12 17.82, 149.53 32.41 M148.04 30.48 C116.94 31.5, 88.61 31.42, -1.99 33.95 M149.74 31.73 C101.78 33.36, 55.49 33.48, 0.06 31.6 M-0.9 30.82 C-2.21 22.1, -0.48 10.48, -0.46 1.47 M-0.31 31.31 C0.03 22.55, 0.44 11.16, -0.77 -0.21" stroke="#364fc7" stroke-width="1" fill="none"></path></g><g transform="translate(0 0) rotate(0 73.5 10.5)"><text x="0" y="15" font-family="Virgil, Segoe UI Emoji" font-size="16px" fill="#364fc7" text-anchor="start" style="white-space: pre;" direction="ltr">JSON Serializable </text></g><g transform="translate(0 0) rotate(0 36 10.5)"><text x="0" y="15" font-family="Virgil, Segoe UI Emoji" font-size="16px" fill="#36c74f" text-anchor="start" style="white-space: pre;" direction="ltr">abstract</text></g><g transform="translate(0 0) rotate(0 36 10.5)"><text x="0" y="15" font-family="Virgil, Segoe UI Emoji" font-size="16px" fill="#36c74f" text-anchor="start" style="white-space: pre;" direction="ltr">abstract</text></g><g transform="translate(0 0) rotate(0 36 10.5)"><text x="0" y="15" font-family="Virgil, Segoe UI Emoji" font-size="16px" fill="#36c74f" text-anchor="start" style="white-space: pre;" direction="ltr">abstract</text></g><g stroke-linecap="round"><g transform="translate(0 0) rotate(0 0.7666096903788002 -19.04075634963496)"><path d="M0.63 0.23 C0.46 -6.06, -0.3 -30.33, -0.29 -36.62 M-0.5 -0.7 C-0.35 -6.8, 1.95 -32.39, 2.03 -38.31" stroke="#000000" stroke-width="1" fill="none"></path></g></g><g stroke-linecap="round"><g transform="translate(0 0) rotate(0 -0.5152898361512825 -13.314433961251424)"><path d="M0.23 -0.74 C-0.04 -5.2, -0.23 -21.98, -0.5 -26.1 M-1.11 1.49 C-1.56 -3.41, -0.83 -23.31, -1.02 -28.11" stroke="#000000" stroke-width="1" fill="none"></path></g></g><g transform="translate(0 0) rotate(0 69.5 10.5)"><text x="0" y="15" font-family="Virgil, Segoe UI Emoji" font-size="16px" fill="#364fc7" text-anchor="start" style="white-space: pre;" direction="ltr">JSON Serializable</text></g><g stroke-linecap="round" transform="translate(0 0) rotate(0 76.24939794774491 14.714793309940433)"><path d="M1.43 -0.88 C57.5 1.68, 114.67 -1.5, 152.03 0.37 M-0.76 -0.37 C32.49 -0.43, 65.32 -1.75, 151.54 -0.12 M153.12 0.76 C152.1 5.91, 150.88 15.52, 153.12 27.53 M151.69 -0.71 C151.87 9.78, 151.83 17.76, 153.42 29.58 M151.74 28.84 C101.26 31.21, 50.06 30.77, -1.01 30.43 M151.85 28.46 C94.28 28.64, 35.24 28.51, 0.73 29.64 M-1.59 29.47 C1.31 21.52, -0.87 10.32, -0.43 0.29 M-0.81 29.66 C-0.59 22.45, 0.13 14.56, 0.27 0.28" stroke="#364fc7" stroke-width="1" fill="none"></path></g><g transform="translate(0 0) rotate(0 52 10.5)"><text x="0" y="15" font-family="Virgil, Segoe UI Emoji" font-size="16px" fill="#000000" text-anchor="start" style="white-space: pre;" direction="ltr">Exercise View</text></g><g stroke-linecap="round" transform="translate(0 0) rotate(0 67.62814642296667 21.18995928972057)"><path d="M93.78 1.86 C103.71 2.95, 113.8 5.33, 120.76 7.99 C127.72 10.65, 134.08 14.3, 135.54 17.83 C137 21.37, 133.93 25.84, 129.53 29.19 C125.13 32.54, 118.16 35.9, 109.14 37.91 C100.11 39.92, 86.7 40.89, 75.36 41.26 C64.03 41.63, 51.54 41.35, 41.12 40.14 C30.7 38.92, 19.54 36.62, 12.83 33.96 C6.11 31.3, 2.07 27.78, 0.82 24.16 C-0.44 20.55, 1.05 15.51, 5.28 12.29 C9.51 9.08, 17.15 7.05, 26.21 4.87 C35.27 2.69, 47.09 -0.57, 59.66 -0.79 C72.23 -1, 93.73 2.81, 101.64 3.57 C109.55 4.34, 107.84 3.76, 107.12 3.81 M82.6 0.65 C93.6 1.47, 104.68 4.29, 113.08 6.51 C121.48 8.72, 129.61 10.75, 133 13.93 C136.4 17.11, 135.83 21.98, 133.43 25.59 C131.04 29.2, 126.02 33.08, 118.62 35.58 C111.23 38.07, 99.71 39.26, 89.07 40.53 C78.43 41.81, 65.95 43.93, 54.79 43.24 C43.63 42.54, 30.82 39.17, 22.1 36.37 C13.39 33.57, 5.8 29.7, 2.5 26.43 C-0.8 23.17, -0.23 20.06, 2.3 16.78 C4.83 13.5, 10.17 9.34, 17.68 6.78 C25.19 4.21, 36.78 2.3, 47.37 1.4 C57.95 0.5, 75.67 1.67, 81.19 1.38 C86.71 1.09, 80.69 -0.72, 80.47 -0.35" stroke="#000000" stroke-width="1" fill="none"></path></g><g stroke-linecap="round"><g transform="translate(0 0) rotate(0 -1.9067920772968137 95.42297951828313)"><path d="M0 0 C-0.64 31.81, -3.18 159.04, -3.81 190.85 M0 0 C-0.64 31.81, -3.18 159.04, -3.81 190.85" stroke="#364fc7" stroke-width="1" fill="none"></path></g><g transform="translate(0 0) rotate(0 -1.9067920772968137 95.42297951828313)"><path d="M-13.51 162.46 C-9.91 173, -6.31 183.55, -3.81 190.85 M-13.51 162.46 C-11.34 168.8, -9.17 175.15, -3.81 190.85" stroke="#364fc7" stroke-width="1" fill="none"></path></g><g transform="translate(0 0) rotate(0 -1.9067920772968137 95.42297951828313)"><path d="M7.01 162.87 C2.99 173.26, -1.03 183.65, -3.81 190.85 M7.01 162.87 C4.59 169.12, 2.17 175.38, -3.81 190.85" stroke="#364fc7" stroke-width="1" fill="none"></path></g></g><g transform="translate(0 0) rotate(0 76 13)"><text x="0" y="18" font-family="Virgil, Segoe UI Emoji" font-size="20px" fill="#000000" text-anchor="start" style="white-space: pre;" direction="ltr">Exercise Editor</text></g><g stroke-linecap="round" transform="translate(0 0) rotate(0 85.52207928953612 23.121545828748367)"><path d="M75.04 0.95 C87.23 0.3, 102.93 -0.12, 115.33 1.16 C127.73 2.44, 140.59 5.96, 149.44 8.62 C158.29 11.28, 165.41 13.78, 168.43 17.12 C171.44 20.45, 170.81 25.18, 167.53 28.61 C164.26 32.04, 157.45 34.95, 148.8 37.69 C140.14 40.44, 127.86 43.69, 115.61 45.07 C103.37 46.46, 88.59 46.59, 75.33 45.98 C62.08 45.38, 46.94 43.4, 36.09 41.42 C25.25 39.44, 16.44 37.14, 10.27 34.11 C4.09 31.08, -1.01 26.94, -0.95 23.24 C-0.88 19.53, 4.43 15.19, 10.65 11.87 C16.86 8.55, 25.01 5.24, 36.35 3.34 C47.68 1.44, 70.92 1.11, 78.64 0.46 C86.36 -0.18, 82.27 -0.87, 82.67 -0.53 M100.8 -0.04 C113.23 0.12, 128.22 3.09, 138.75 5.41 C149.29 7.72, 158.78 10.49, 164.01 13.82 C169.23 17.15, 170.81 21.93, 170.1 25.38 C169.39 28.84, 166.67 31.78, 159.77 34.55 C152.87 37.32, 140.55 39.91, 128.72 42 C116.89 44.1, 101.94 46.67, 88.8 47.13 C75.66 47.6, 61.74 46.25, 49.87 44.79 C38 43.34, 25.62 41.33, 17.58 38.39 C9.54 35.45, 3.74 30.94, 1.64 27.15 C-0.47 23.36, 1.2 19.06, 4.95 15.66 C8.71 12.26, 14.72 9.05, 24.17 6.72 C33.61 4.39, 48.84 2.91, 61.62 1.67 C74.4 0.42, 94.33 -0.66, 100.85 -0.76 C107.37 -0.86, 101.06 0.51, 100.73 1.08" stroke="#000000" stroke-width="1" fill="none"></path></g><g transform="translate(0 0) rotate(0 34.5 10.5)"><text x="0" y="15" font-family="Virgil, Segoe UI Emoji" font-size="16px" fill="#364fc7" text-anchor="start" style="white-space: pre;" direction="ltr">Writeonly</text></g><g transform="translate(0 0) rotate(0 34.5 10.5)"><text x="0" y="15" font-family="Virgil, Segoe UI Emoji" font-size="16px" fill="#364fc7" text-anchor="start" style="white-space: pre;" direction="ltr">Writeonly</text></g><g transform="translate(0 0) rotate(0 38 10.5)"><text x="0" y="15" font-family="Virgil, Segoe UI Emoji" font-size="16px" fill="#364fc7" text-anchor="start" style="white-space: pre;" direction="ltr">Readonly </text></g><g stroke-linecap="round"><g transform="translate(0 0) rotate(0 -76.31936987910353 -1.3559377127036711)"><path d="M0.95 -0.92 C-24.48 -1.13, -128.06 -1.66, -153.59 -1.8" stroke="#364fc7" stroke-width="1.5" fill="none" stroke-dasharray="8 9"></path></g><g transform="translate(0 0) rotate(0 -76.31936987910353 -1.3559377127036711)"><path d="M-126.87 -12.65 C-132 -7.95, -137.92 -8.42, -155.51 -2.03" stroke="#364fc7" stroke-width="1.5" fill="none"></path></g><g transform="translate(0 0) rotate(0 -76.31936987910353 -1.3559377127036711)"><path d="M-126.98 7.87 C-131.99 8.16, -137.89 3.28, -155.51 -2.03" stroke="#364fc7" stroke-width="1.5" fill="none"></path></g></g><g stroke-linecap="round"><g transform="translate(0 0) rotate(0 34.45176435102769 1.2013988398890945)"><path d="M-0.32 0.94 C11.37 1.25, 57.79 1.29, 69.23 1.47" stroke="#000000" stroke-width="1.5" fill="none" stroke-dasharray="8 9"></path></g><g transform="translate(0 0) rotate(0 34.45176435102769 1.2013988398890945)"><path d="M42.52 11.13 C46.23 7.43, 53.41 5.97, 67.6 1.49" stroke="#000000" stroke-width="1.5" fill="none"></path></g><g transform="translate(0 0) rotate(0 34.45176435102769 1.2013988398890945)"><path d="M42.67 -9.39 C46.28 -8.51, 53.41 -5.37, 67.6 1.49" stroke="#000000" stroke-width="1.5" fill="none"></path></g></g><g stroke-linecap="round"><g transform="translate(0 0) rotate(0 -27.5970818246916 51.817406946291946)"><path d="M-0.65 -1.15 C-9.9 16.35, -45.42 87.02, -54.54 104.79" stroke="#364fc7" stroke-width="1.5" fill="none" stroke-dasharray="8 9"></path></g><g transform="translate(0 0) rotate(0 -27.5970818246916 51.817406946291946)"><path d="M-52.85 74.77 C-53.48 84.62, -53.7 98.12, -53.78 104.63" stroke="#364fc7" stroke-width="1.5" fill="none"></path></g><g transform="translate(0 0) rotate(0 -27.5970818246916 51.817406946291946)"><path d="M-34.56 84.06 C-42.08 90.29, -49.22 100.29, -53.78 104.63" stroke="#364fc7" stroke-width="1.5" fill="none"></path></g></g><g transform="translate(0 0) rotate(0 38 10.5)"><text x="0" y="15" font-family="Virgil, Segoe UI Emoji" font-size="16px" fill="#364fc7" text-anchor="start" style="white-space: pre;" direction="ltr">Readonly </text></g><g transform="translate(0 0) rotate(0 34.5 10.5)"><text x="0" y="15" font-family="Virgil, Segoe UI Emoji" font-size="16px" fill="#364fc7" text-anchor="start" style="white-space: pre;" direction="ltr">Writeonly</text></g><g transform="translate(0 0) rotate(0 92 10.5)"><text x="0" y="15" font-family="Virgil, Segoe UI Emoji" font-size="16px" fill="#000000" text-anchor="start" style="white-space: pre;" direction="ltr">Exercise Definition View</text></g><g stroke-linecap="round" transform="translate(0 0) rotate(0 108.36515934665408 20.614411646992266)"><path d="M104.55 0.33 C118.38 0.05, 133.75 0.74, 147.43 1.64 C161.11 2.55, 176.32 3.92, 186.61 5.77 C196.9 7.61, 204.33 9.98, 209.17 12.74 C214.01 15.5, 216.61 19.6, 215.66 22.34 C214.71 25.08, 209.98 26.76, 203.45 29.19 C196.93 31.62, 187.81 34.9, 176.5 36.93 C165.18 38.96, 149.82 40.76, 135.56 41.36 C121.31 41.97, 105.57 41.14, 90.97 40.56 C76.38 39.97, 60.31 39.32, 47.99 37.87 C35.68 36.42, 24.87 34.32, 17.07 31.85 C9.28 29.39, 3.29 25.75, 1.2 23.09 C-0.89 20.44, 0.64 18.59, 4.53 15.91 C8.41 13.22, 15.34 9.46, 24.53 7.01 C33.71 4.55, 44.13 2.35, 59.65 1.17 C75.18 0, 105.95 0.06, 117.68 -0.04 C129.41 -0.13, 130.17 0.19, 130.04 0.59 M106.3 0.03 C120.27 -0.11, 139.18 1.45, 152.76 2.37 C166.35 3.29, 178.11 3.55, 187.79 5.54 C197.47 7.53, 206.25 11.46, 210.83 14.31 C215.41 17.15, 216.42 20.05, 215.29 22.59 C214.17 25.13, 211.11 27.27, 204.08 29.56 C197.05 31.84, 185.16 34.4, 173.11 36.3 C161.06 38.2, 146.4 40.12, 131.78 40.94 C117.16 41.76, 99.71 41.62, 85.38 41.22 C71.05 40.81, 57.79 40.18, 45.8 38.51 C33.82 36.84, 21.11 34.03, 13.49 31.19 C5.87 28.35, 1.52 24.24, 0.09 21.45 C-1.34 18.67, 0.54 16.87, 4.91 14.48 C9.28 12.09, 16.6 9.2, 26.32 7.12 C36.05 5.03, 49.87 3.3, 63.29 1.98 C76.71 0.65, 99.48 -0.54, 106.84 -0.85 C114.2 -1.17, 107.41 -0.28, 107.45 0.09" stroke="#000000" stroke-width="1" fill="none"></path></g><g stroke-linecap="round"><g transform="translate(0 0) rotate(0 -17.02486451449181 -52.41250727990209)"><path d="M0.46 -0.1 C-5.3 -17.61, -28.92 -87.49, -34.51 -104.73" stroke="#000000" stroke-width="1.5" fill="none" stroke-dasharray="8 9"></path></g><g transform="translate(0 0) rotate(0 -17.02486451449181 -52.41250727990209)"><path d="M-16.05 -82.46 C-22.94 -87.03, -26.55 -97.19, -34.13 -103.27" stroke="#000000" stroke-width="1.5" fill="none"></path></g><g transform="translate(0 0) rotate(0 -17.02486451449181 -52.41250727990209)"><path d="M-35.53 -76 C-36.58 -82.58, -34.32 -94.69, -34.13 -103.27" stroke="#000000" stroke-width="1.5" fill="none"></path></g></g><g transform="translate(0 0) rotate(0 194.5 18)"><text x="0" y="26" font-family="Virgil, Segoe UI Emoji" font-size="28px" fill="#36c74f" text-anchor="start" style="white-space: pre;" direction="ltr">Webserver database access</text></g><g stroke-linecap="round" transform="translate(0 0) rotate(0 202.12401169756504 21.57866015492459)"><path d="M0 0 C117.98 0, 235.97 0, 404.25 0 M0 0 C87.02 0, 174.04 0, 404.25 0 M404.25 0 C404.25 13.36, 404.25 26.72, 404.25 43.16 M404.25 0 C404.25 15.61, 404.25 31.21, 404.25 43.16 M404.25 43.16 C252.66 43.16, 101.08 43.16, 0 43.16 M404.25 43.16 C307.05 43.16, 209.84 43.16, 0 43.16 M0 43.16 C0 30.57, 0 17.98, 0 0 M0 43.16 C0 32.16, 0 21.16, 0 0" stroke="#36c74f" stroke-width="1" fill="none"></path></g><g transform="translate(0 0) rotate(0 133.5 22.5)"><text x="0" y="32" font-family="Virgil, Segoe UI Emoji" font-size="36px" fill="#000000" text-anchor="start" style="white-space: pre;" direction="ltr">Exercise Engine</text></g><g stroke-linecap="round"><g transform="translate(0 0) rotate(0 -0.8659833065125895 -88.66366681339966)"><path d="M0.53 0.37 C0.09 -29.25, -1.56 -147.92, -2.26 -177.7" stroke="#000000" stroke-width="1.5" fill="none" stroke-dasharray="8 9"></path></g><g transform="translate(0 0) rotate(0 -0.8659833065125895 -88.66366681339966)"><path d="M9.12 -148.7 C5.64 -160.27, 1.09 -166.54, -2.52 -177.94" stroke="#000000" stroke-width="1.5" fill="none"></path></g><g transform="translate(0 0) rotate(0 -0.8659833065125895 -88.66366681339966)"><path d="M-11.4 -148.33 C-8.08 -160.11, -5.84 -166.51, -2.52 -177.94" stroke="#000000" stroke-width="1.5" fill="none"></path></g></g><g stroke-linecap="round"><g transform="translate(0 0) rotate(0 147.53270364834157 -1.0549399134824)"><path d="M1.08 0.32 C50.15 -0.08, 245.19 -2.06, 293.98 -2.43" stroke="#364fc7" stroke-width="1.5" fill="none" stroke-dasharray="8 9"></path></g><g transform="translate(0 0) rotate(0 147.53270364834157 -1.0549399134824)"><path d="M266.42 8.03 C273.95 4.72, 282.34 3.28, 292.32 -2.5" stroke="#364fc7" stroke-width="1.5" fill="none"></path></g><g transform="translate(0 0) rotate(0 147.53270364834157 -1.0549399134824)"><path d="M266.24 -12.49 C273.81 -10.31, 282.25 -6.27, 292.32 -2.5" stroke="#364fc7" stroke-width="1.5" fill="none"></path></g></g><g stroke-linecap="round"><g transform="translate(0 0) rotate(0 0.19046931408229284 15.118492202755869)"><path d="M0 0 C0.06 5.04, 0.32 25.2, 0.38 30.24 M0 0 C0.06 5.04, 0.32 25.2, 0.38 30.24" stroke="#364fc7" stroke-width="1" fill="none"></path></g><g transform="translate(0 0) rotate(0 0.19046931408229284 15.118492202755869)"><path d="M-4.97 16.1 C-3.84 19.08, -2.71 22.07, 0.38 30.24 M-4.97 16.1 C-2.87 21.64, -0.77 27.18, 0.38 30.24" stroke="#364fc7" stroke-width="1" fill="none"></path></g><g transform="translate(0 0) rotate(0 0.19046931408229284 15.118492202755869)"><path d="M5.37 15.97 C4.32 18.98, 3.27 21.99, 0.38 30.24 M5.37 15.97 C3.42 21.56, 1.46 27.16, 0.38 30.24" stroke="#364fc7" stroke-width="1" fill="none"></path></g></g><g stroke-linecap="round"><g transform="translate(0 0) rotate(0 0.8586876648108728 15.528490260139556)"><path d="M0.6 0.9 C0.66 5.99, -0.22 25.76, -0.09 30.73 M-0.54 0.32 C-0.05 5.03, 2 23.44, 2.26 28.76" stroke="#000000" stroke-width="1" fill="none"></path></g></g><g stroke-linecap="round" transform="translate(0 0) rotate(0 381.9992131114918 217.37584362063157)"><path d="M-0.59 -0.03 C204.79 -0.54, 410.31 -1.18, 763.89 -0.24 M764.45 -0.89 C763.18 135.67, 763.24 272.81, 764.5 434.45 M763.9 435.01 C479.79 431.65, 195.47 431.59, -0.42 435.06 M-0.85 434.6 C1.41 292.53, 1.4 152.34, -0.26 -0.52" stroke="#000000" stroke-width="2.5" fill="none" stroke-dasharray="1.5 8"></path></g><g transform="translate(0 0) rotate(0 74.5 13)"><text x="0" y="18" font-family="Virgil, Segoe UI Emoji" font-size="20px" fill="#000000" text-anchor="start" style="white-space: pre;" direction="ltr">Exercise editor</text></g><g stroke-linecap="round" transform="translate(0 0) rotate(0 150.79223157440185 218.54909333911104)"><path d="M-0.27 1.44 C81.65 0.32, 160.72 0.45, 300.99 -0.4 M301.21 -0.47 C301.36 90.23, 301.95 179.14, 300.58 437.05 M301.24 437.79 C201.91 438.4, 106.03 438.66, 1.31 436.94 M-0.5 437.83 C-0.6 311.83, -0.48 188.34, -0.98 0.63" stroke="#000000" stroke-width="2.5" fill="none" stroke-dasharray="1.5 8"></path></g><g transform="translate(0 0) rotate(0 82.5 13)"><text x="0" y="18" font-family="Virgil, Segoe UI Emoji" font-size="20px" fill="#000000" text-anchor="start" style="white-space: pre;" direction="ltr">Exercise factory</text></g><g stroke-linecap="round"><g transform="translate(0 0) rotate(0 15.853992940853118 58.53641663006219)"><path d="M-1.08 1.14 C4.5 10.93, 31.66 38.51, 32.79 57.64 C33.92 76.77, 10.35 105.95, 5.69 115.93" stroke="#000000" stroke-width="1.5" fill="none" stroke-dasharray="8 9"></path></g><g transform="translate(0 0) rotate(0 15.853992940853118 58.53641663006219)"><path d="M13.46 85.8 C10.71 93.49, 7.74 99.2, 7.68 114.29" stroke="#000000" stroke-width="1.5" fill="none"></path></g><g transform="translate(0 0) rotate(0 15.853992940853118 58.53641663006219)"><path d="M31 96.45 C24.08 101.39, 16.84 104.51, 7.68 114.29" stroke="#000000" stroke-width="1.5" fill="none"></path></g></g><g stroke-linecap="round" transform="translate(0 0) rotate(0 559.9905339965669 233.82760138409446)"><path d="M-0.46 0.56 C397.52 -4.21, 794.32 -4.29, 1119.59 0.39 M-0.39 0.09 C425.18 4.2, 850.12 3.9, 1119.97 -0.06 M1120.77 0.64 C1122.34 145.32, 1121.61 289.99, 1119.54 467.4 M1119.58 -0.45 C1119.63 103.34, 1119.75 207.74, 1119.8 467.69 M1120.29 466.94 C896.29 470.14, 671.99 470.29, -0.7 467 M1119.83 467.73 C718.47 466.3, 317.72 466.25, -0.15 468.03 M-0.5 468.33 C-0.47 299.54, -1.48 129.77, -0.32 0.77 M0.11 467.6 C-0.93 341.61, -1.65 214.8, -0.18 -0.24" stroke="#000000" stroke-width="2" fill="none"></path></g><g stroke-linecap="round"><g transform="translate(0 0) rotate(0 NaN NaN)"><path d="M0.44 -0.17 C0.29 9.02, -0.88 46.83, -1.07 56.32" stroke="#364fc7" stroke-width="1.5" fill="none" stroke-dasharray="8 9"></path></g><g transform="translate(0 0) rotate(0 NaN NaN)"><path d="M-10.43 27.44 C-8.65 35.69, -5.31 44.45, -0.96 55.91" stroke="#364fc7" stroke-width="1.5" fill="none"></path></g><g transform="translate(0 0) rotate(0 NaN NaN)"><path d="M9.1 27.95 C5.33 36.13, 3.11 44.74, -0.96 55.91" stroke="#364fc7" stroke-width="1.5" fill="none"></path></g></g><g stroke-linecap="round"><g transform="translate(0 0) rotate(0 67.0713749555257 0.755340940192788)"><path d="M-0.05 -0.57 C22.38 -0.13, 111.74 1.61, 134.19 2.09" stroke="#364fc7" stroke-width="1.5" fill="none" stroke-dasharray="8 9"></path></g><g transform="translate(0 0) rotate(0 67.0713749555257 0.755340940192788)"><path d="M104.84 12.46 C114.65 10.64, 122.68 5.23, 134.2 0.2" stroke="#364fc7" stroke-width="1.5" fill="none"></path></g><g transform="translate(0 0) rotate(0 67.0713749555257 0.755340940192788)"><path d="M105.25 -8.06 C114.86 -4.33, 122.78 -4.2, 134.2 0.2" stroke="#364fc7" stroke-width="1.5" fill="none"></path></g></g><g stroke-linecap="round"><g transform="translate(0 0) rotate(0 156.58224700026778 61.33115723307507)"><path d="M-1.15 0.23 C2.25 0.5, -15.76 -5.05, 19.26 2.43 C54.27 9.91, 159.5 24.82, 208.96 45.1 C258.41 65.39, 298.39 110.9, 315.97 124.16" stroke="#364fc7" stroke-width="1.5" fill="none" stroke-dasharray="8 9"></path></g><g transform="translate(0 0) rotate(0 156.58224700026778 61.33115723307507)"><path d="M288.45 114.83 C292.54 114.65, 298.45 119.03, 316.75 122.71" stroke="#364fc7" stroke-width="1.5" fill="none"></path></g><g transform="translate(0 0) rotate(0 156.58224700026778 61.33115723307507)"><path d="M302.07 99.48 C303.51 102.27, 306.66 109.77, 316.75 122.71" stroke="#364fc7" stroke-width="1.5" fill="none"></path></g></g><g stroke-linecap="round"><g transform="translate(0 0) rotate(0 18.32584834438569 114.32943841518123)"><path d="M0.47 0.9 C7.07 13.99, 32.41 43.16, 38.51 77.41 C44.62 111.66, 44.55 181.35, 37.1 206.41 C29.64 231.47, 1.01 224.3, -6.24 227.76" stroke="#364fc7" stroke-width="1.5" fill="none" stroke-dasharray="8 9"></path></g><g transform="translate(0 0) rotate(0 18.32584834438569 114.32943841518123)"><path d="M16.41 216.89 C8.77 219.08, 6.79 219.97, -5.29 225.99" stroke="#364fc7" stroke-width="1.5" fill="none"></path></g><g transform="translate(0 0) rotate(0 18.32584834438569 114.32943841518123)"><path d="M18.44 233.02 C10.52 231.86, 8.12 229.39, -5.29 225.99" stroke="#364fc7" stroke-width="1.5" fill="none"></path></g></g><g stroke-linecap="round"><g transform="translate(0 0) rotate(0 -1.9928488754326281 -49.15693892733805)"><path d="M0 0 C-0.66 -16.39, -3.32 -81.93, -3.99 -98.31 M0 0 C-0.66 -16.39, -3.32 -81.93, -3.99 -98.31" stroke="#36c74f" stroke-width="1" fill="none"></path></g><g transform="translate(0 0) rotate(0 -1.9928488754326281 -49.15693892733805)"><path d="M7.41 -70.56 C3.7 -79.59, 0 -88.61, -3.99 -98.31 M7.41 -70.56 C3.98 -78.9, 0.56 -87.25, -3.99 -98.31" stroke="#36c74f" stroke-width="1" fill="none"></path></g><g transform="translate(0 0) rotate(0 -1.9928488754326281 -49.15693892733805)"><path d="M-13.1 -69.73 C-10.13 -79.03, -7.17 -88.32, -3.99 -98.31 M-13.1 -69.73 C-10.36 -78.32, -7.62 -86.91, -3.99 -98.31" stroke="#36c74f" stroke-width="1" fill="none"></path></g></g><g transform="translate(0 0) rotate(0 555.1644758650494 49.88166671666002)"><text x="0" y="24.25444447777334" font-family="Virgil, Segoe UI Emoji" font-size="25.864567927157047px" fill="#36c74f" text-anchor="start" style="white-space: pre;" direction="ltr">!! must resolve, what if I change way how the exercise is being serialized at runtime? </text><text x="0" y="57.50888895554668" font-family="Virgil, Segoe UI Emoji" font-size="25.864567927157047px" fill="#36c74f" text-anchor="start" style="white-space: pre;" direction="ltr">how can I pass the new object to be serialized to the exercise editor at runtime????</text><text x="0" y="90.76333343332001" font-family="Virgil, Segoe UI Emoji" font-size="25.864567927157047px" fill="#36c74f" text-anchor="start" style="white-space: pre;" direction="ltr">-- maybe some kind of hotreload equivalent?</text></g></svg>